REM DIRINDEX 1\3,1\4,1\5,1\6,1\2\7,1\2\8,1\2\9,1\2\10,1\2\11
REM DIRNAME cjc021,folder01,folder02,folder03,folder04,folder05,folder06,folder07,folder08,folder09,folder10
TITLE ""
FILE "DISC5Track14.mp3" MP3
  TRACK 01 AUDIO
    TITLE "0:"
    INDEX 01 00:00:00
  TRACK 02 AUDIO
    TITLE "3:cjc021_5174"
    INDEX 01 00:00:21
  TRACK 03 AUDIO
    TITLE "0:"
    INDEX 01 00:01:46
  TRACK 04 AUDIO
    TITLE "4:cjc021_5175"
    INDEX 01 00:03:21
  TRACK 05 AUDIO
    TITLE "0:"
    INDEX 01 00:04:42
  TRACK 06 AUDIO
    TITLE "5:cjc021_5176"
    INDEX 01 00:05:05
  TRACK 07 AUDIO
    TITLE "0:"
    INDEX 01 00:08:21
  TRACK 08 AUDIO
    TITLE "3:cjc021_5177"
    INDEX 01 00:09:55
  TRACK 09 AUDIO
    TITLE "0:"
    INDEX 01 00:10:63
  TRACK 10 AUDIO
    TITLE "4:cjc021_5178"
    INDEX 01 00:12:38
  TRACK 11 AUDIO
    TITLE "0:"
    INDEX 01 00:13:45
  TRACK 12 AUDIO
    TITLE "5:cjc021_5179"
    INDEX 01 00:14:06
  TRACK 13 AUDIO
    TITLE "0:"
    INDEX 01 00:16:36
  TRACK 14 AUDIO
    TITLE "3:cjc021_5180"
    INDEX 01 00:17:72
  TRACK 15 AUDIO
    TITLE "0:"
    INDEX 01 00:19:03
  TRACK 16 AUDIO
    TITLE "4:cjc021_5181"
    INDEX 01 00:20:55
  TRACK 17 AUDIO
    TITLE "0:"
    INDEX 01 00:21:62
  TRACK 18 AUDIO
    TITLE "5:cjc021_5182"
    INDEX 01 00:22:23
  TRACK 19 AUDIO
    TITLE "0:"
    INDEX 01 00:24:57
  TRACK 20 AUDIO
    TITLE "3:cjc021_5183"
    INDEX 01 00:26:20
  TRACK 21 AUDIO
    TITLE "0:"
    INDEX 01 00:27:28
  TRACK 22 AUDIO
    TITLE "4:cjc021_5184"
    INDEX 01 00:29:03
  TRACK 23 AUDIO
    TITLE "0:"
    INDEX 01 00:30:12
  TRACK 24 AUDIO
    TITLE "5:cjc021_5185"
    INDEX 01 00:30:48
  TRACK 25 AUDIO
    TITLE "0:"
    INDEX 01 00:33:34
  TRACK 26 AUDIO
    TITLE "3:cjc021_5186"
    INDEX 01 00:34:69
  TRACK 27 AUDIO
    TITLE "0:"
    INDEX 01 00:35:72
  TRACK 28 AUDIO
    TITLE "4:cjc021_5187"
    INDEX 01 00:37:48
  TRACK 29 AUDIO
    TITLE "0:"
    INDEX 01 00:38:51
  TRACK 30 AUDIO
    TITLE "5:cjc021_5188"
    INDEX 01 00:39:13
  TRACK 31 AUDIO
    TITLE "0:"
    INDEX 01 00:42:51
  TRACK 32 AUDIO
    TITLE "3:cjc021_5189"
    INDEX 01 00:44:11
  TRACK 33 AUDIO
    TITLE "0:"
    INDEX 01 00:45:18
  TRACK 34 AUDIO
    TITLE "4:cjc021_5190"
    INDEX 01 00:46:72
  TRACK 35 AUDIO
    TITLE "0:"
    INDEX 01 00:48:06
  TRACK 36 AUDIO
    TITLE "5:cjc021_5191"
    INDEX 01 00:48:46
  TRACK 37 AUDIO
    TITLE "0:"
    INDEX 01 00:51:13
  TRACK 38 AUDIO
    TITLE "3:cjc021_5192"
    INDEX 01 00:52:49
  TRACK 39 AUDIO
    TITLE "0:"
    INDEX 01 00:53:51
  TRACK 40 AUDIO
    TITLE "4:cjc021_5193"
    INDEX 01 00:55:28
  TRACK 41 AUDIO
    TITLE "0:"
    INDEX 01 00:56:29
  TRACK 42 AUDIO
    TITLE "5:cjc021_5194"
    INDEX 01 00:56:65
  TRACK 43 AUDIO
    TITLE "0:"
    INDEX 01 00:59:12
  TRACK 44 AUDIO
    TITLE "3:cjc021_5195"
    INDEX 01 01:00:51
  TRACK 45 AUDIO
    TITLE "0:"
    INDEX 01 01:02:03
  TRACK 46 AUDIO
    TITLE "4:cjc021_5196"
    INDEX 01 01:03:57
  TRACK 47 AUDIO
    TITLE "0:"
    INDEX 01 01:05:09
  TRACK 48 AUDIO
    TITLE "5:cjc021_5197"
    INDEX 01 01:05:46
  TRACK 49 AUDIO
    TITLE "0:"
    INDEX 01 01:08:21
  TRACK 50 AUDIO
    TITLE "3:cjc021_5198"
    INDEX 01 01:09:57
  TRACK 51 AUDIO
    TITLE "0:"
    INDEX 01 01:10:73
  TRACK 52 AUDIO
    TITLE "4:cjc021_5199"
    INDEX 01 01:12:50
  TRACK 53 AUDIO
    TITLE "0:"
    INDEX 01 01:13:63
  TRACK 54 AUDIO
    TITLE "5:cjc021_5200"
    INDEX 01 01:14:27
  TRACK 55 AUDIO
    TITLE "0:"
    INDEX 01 01:17:00
  TRACK 56 AUDIO
    TITLE "3:cjc021_5201"
    INDEX 01 01:18:41
  TRACK 57 AUDIO
    TITLE "0:"
    INDEX 01 01:19:42
  TRACK 58 AUDIO
    TITLE "4:cjc021_5202"
    INDEX 01 01:21:21
  TRACK 59 AUDIO
    TITLE "0:"
    INDEX 01 01:22:21
  TRACK 60 AUDIO
    TITLE "5:cjc021_5203"
    INDEX 01 01:22:60
  TRACK 61 AUDIO
    TITLE "0:"
    INDEX 01 01:25:15
